<svg width="33" height="30" viewBox="0 0 33 30" fill="none" xmlns="http://www.w3.org/2000/svg">
<path d="M32.7064 15.2778C32.5661 14.9722 32.3781 14.7044 32.1533 14.4898C31.9285 14.2753 31.6715 14.1185 31.3972 14.0284C30.4024 13.711 29.3743 13.5834 28.3484 13.65C28.8985 10.2665 28.4859 7.59034 28.0651 6.00341C27.8974 5.35153 27.5398 4.80044 27.0621 4.45758C26.5843 4.11472 26.0207 4.00466 25.4811 4.14886C24.0817 4.53516 22.7511 5.23531 21.5549 6.21477C20.6788 3.99655 19.4032 2.05746 17.8267 0.547159C17.4446 0.191992 16.9799 0 16.5023 0C16.0248 0 15.5601 0.191992 15.178 0.547159C13.6011 2.05703 12.3255 3.99622 11.4498 6.21477C10.2536 5.23531 8.92296 4.53516 7.52357 4.14886C6.98394 4.00466 6.42032 4.11472 5.9426 4.45758C5.46487 4.80044 5.10729 5.35153 4.93955 6.00341C4.52699 7.59034 4.11442 10.2648 4.65626 13.65C3.63037 13.5834 2.60228 13.711 1.60741 14.0284C1.33318 14.1185 1.07616 14.2753 0.851379 14.4898C0.626595 14.7044 0.438546 14.9722 0.298211 15.2778C0.151346 15.5909 0.0562501 15.9371 0.0184721 16.2961C-0.0193058 16.6552 0.000990601 17.0201 0.0781773 17.3693C0.544374 19.5119 1.97597 23.5875 6.31201 26.7989C10.6481 30.0102 14.4574 30 16.5092 30C18.561 30 22.3772 30 26.6858 26.7989C31.0218 23.5875 32.4534 19.5119 32.9196 17.3693C32.9978 17.0206 33.0192 16.6561 32.9827 16.297C32.9461 15.9379 32.8522 15.5915 32.7064 15.2778ZM7.03262 6.84205C7.03426 6.83359 7.03846 6.82622 7.04434 6.82147C7.05022 6.81672 7.05734 6.81493 7.06425 6.81648C8.34387 7.17476 9.55143 7.85152 10.6137 8.80568C10.13 10.7669 9.8898 12.8078 9.90131 14.8585C9.90131 18.0528 10.4198 20.654 11.1541 22.7472C10.1101 21.452 9.2068 19.9937 8.46697 18.4091C5.98884 13.0602 6.50454 8.86364 7.03262 6.84205ZM7.44518 24.4585C3.7775 21.7449 2.58794 18.4176 2.20013 16.6534C3.21204 16.3446 4.26206 16.2769 5.29435 16.454C5.63898 17.5982 6.05987 18.7049 6.55267 19.7625C7.76266 22.3482 9.34787 24.6343 11.2284 26.5057C9.89863 26.0318 8.62484 25.3435 7.43968 24.4585H7.44518ZM16.5023 27C15.2193 25.817 12.1017 22.1881 12.1017 14.8585C12.1017 7.61932 15.1794 3.96136 16.5023 2.72727C17.8253 3.96477 20.903 7.62273 20.903 14.8619C20.903 22.1881 17.7854 25.817 16.5023 27ZM22.391 8.80568C23.4533 7.85212 24.6609 7.17595 25.9404 6.81818C25.9473 6.81664 25.9544 6.81842 25.9603 6.82317C25.9662 6.82793 25.9704 6.83529 25.972 6.84375C26.5001 8.86364 27.0158 13.0602 24.5377 18.4091C23.7985 19.9958 22.8951 21.4559 21.8505 22.7523C22.5849 20.6625 23.1033 18.058 23.1033 14.8636C23.1153 12.8112 22.8751 10.7685 22.391 8.80568ZM30.8045 16.6568C30.4236 18.404 29.2368 21.7381 25.5663 24.4585C24.3811 25.3429 23.1073 26.0306 21.7776 26.504C23.6582 24.6326 25.2434 22.3465 26.4534 19.7608C26.9462 18.7032 27.367 17.5965 27.7117 16.4523C28.7437 16.276 29.7933 16.3466 30.8045 16.6568Z" fill="#27685B"/>
</svg>
