<svg width="28" height="28" viewBox="0 0 28 28" fill="none" xmlns="http://www.w3.org/2000/svg">
<path d="M2.40569 14.4061C2.30846 14.1441 2.30846 13.856 2.40569 13.5941C3.35267 11.2979 4.96012 9.3346 7.02425 7.9531C9.08838 6.5716 11.5162 5.83411 14 5.83411C16.4838 5.83411 18.9117 6.5716 20.9758 7.9531C23.0399 9.3346 24.6474 11.2979 25.5944 13.5941C25.6916 13.856 25.6916 14.1441 25.5944 14.4061C24.6474 16.7022 23.0399 18.6655 20.9758 20.047C18.9117 21.4285 16.4838 22.166 14 22.166C11.5162 22.166 9.08838 21.4285 7.02425 20.047C4.96012 18.6655 3.35267 16.7022 2.40569 14.4061Z" stroke="#27685B" stroke-width="2.33333" stroke-linecap="round" stroke-linejoin="round"/>
<path d="M14 17.5C15.933 17.5 17.5 15.933 17.5 14C17.5 12.067 15.933 10.5 14 10.5C12.067 10.5 10.5 12.067 10.5 14C10.5 15.933 12.067 17.5 14 17.5Z" stroke="#27685B" stroke-width="2.33333" stroke-linecap="round" stroke-linejoin="round"/>
</svg>
